<?xml version="1.0" encoding="UTF-8"?>
<svg id="Layer_1" data-name="Layer 1" xmlns="http://www.w3.org/2000/svg" viewBox="0 0 32.98 42.5">
  <defs>
    <style>
      .cls-1 {
        fill: #231f20;
      }
    </style>
  </defs>
  <path class="cls-1" d="M32.98,2.97V41.07c0,.58-.34,1.07-.83,1.3-.18,.08-.39,.13-.6,.13-.8,0-1.44-.64-1.44-1.43V9.07c0-.49-.39-.88-.88-.88H3.75c-.49,0-.88,.39-.88,.88V41.07c0,.79-.64,1.43-1.44,1.43-.21,0-.42-.05-.6-.13-.49-.23-.83-.72-.83-1.3V2.97C0,1.66,.87,.54,2.05,.14c.29-.09,.6-.14,.92-.14H30.01c.32,0,.63,.05,.92,.14,1.18,.4,2.05,1.52,2.05,2.83Z"/>
</svg>