<?xml version="1.0" encoding="UTF-8"?>
<svg id="Layer_1" data-name="Layer 1" xmlns="http://www.w3.org/2000/svg" viewBox="0 0 7.92 21.73">
  <path d="M2.75,21.23c-1.09,0-1.9-.39-2.16-1.04-.43-1.07,.76-2.6,2.59-3.34,.67-.27,1.36-.41,2-.41,.59,0,1.11,.12,1.51,.34l.74,.41v.81c-.03,1.02-1.13,2.19-2.67,2.82-.67,.27-1.36,.41-2.01,.41Z"/>
  <path d="M5.18,16.94c.5,0,.94,.1,1.26,.27l.48,.27v.48c-.02,.7-.86,1.77-2.35,2.38-.61,.24-1.24,.37-1.82,.37-.85,0-1.52-.28-1.69-.72-.29-.71,.64-2.02,2.31-2.69,.61-.25,1.23-.38,1.82-.38M7.92,0h-1V16.34c-.47-.26-1.08-.4-1.75-.4s-1.44,.14-2.19,.45c-2.12,.86-3.4,2.64-2.86,3.99,.35,.87,1.37,1.35,2.62,1.35,.69,0,1.44-.14,2.2-.45,1.76-.72,2.94-2.07,2.98-3.28V0h0Z"/>
</svg>